<?xml version="1.0" encoding="UTF-8"?>
<svg id="Layer_1" xmlns="http://www.w3.org/2000/svg" version="1.1" viewBox="0 0 1000 1000">
  <!-- Generator: Adobe Illustrator 29.7.1, SVG Export Plug-In . SVG Version: 2.1.1 Build 8)  -->
  <defs>
    <style>
      .st0 {
        fill: #d6d7d8;
      }
    </style>
  </defs>
  <path class="st0" d="M965.47,97.09l-461.75,786.4L34.81,97.09h930.65M1000,77.5H0l17.59,29.5,468.89,786.4,17.35,29.1,17.15-29.22L982.73,106.88l17.27-29.38h0Z"/>
  <g>
    <polygon class="st0" points="755.12 213.96 524.03 214.02 544.73 249.03 734.41 249 830.87 249 782.41 330.91 759.95 368.91 687.8 490.96 639.56 572.54 591.35 490.96 519.2 368.98 615.65 368.95 639.56 409.41 663.47 368.95 685.97 330.91 593.15 330.95 496.71 330.95 448.28 249.05 427.57 214.02 379.13 132.11 475.57 132.11 803.57 132.05 900.03 132.02 851.57 213.96 755.12 213.96"/>
    <polygon class="st0" points="618.8 607.63 570.59 689.19 548.33 726.83 500.09 808.39 451.88 726.83 240.28 369.01 217.81 331 169.39 249.08 265.85 249.08 314.27 330.97 336.73 369.01 500.09 645.29 522.35 607.63 381.23 368.98 358.76 330.97 310.33 249.05 289.61 214.06 245.11 214.06 148.69 214.08 100.24 132.17 196.69 132.14 241.17 132.14 337.64 132.11 386.05 214.02 406.76 249.05 455.21 330.97 477.68 368.98 570.59 526.08 618.8 607.63"/>
  </g>
</svg>