<?xml version="1.0" encoding="UTF-8"?>
<svg id="Layer_1" xmlns="http://www.w3.org/2000/svg" version="1.1" viewBox="0 0 1000 1000">
  <!-- Generator: Adobe Illustrator 29.7.0, SVG Export Plug-In . SVG Version: 2.1.1 Build 138)  -->
  <defs>
    <style>
      .st0 {
        fill: #d8d9d8;
      }
    </style>
  </defs>
  <path class="st0" d="M965.46,94.71l-461.75,791.05L34.81,94.71h930.65M1000,75H0l17.59,29.68,468.9,791.05,17.35,29.27,17.15-29.39L982.74,104.56l17.26-29.56h0Z"/>
  <g>
    <polygon class="st0" points="755.12 212.27 524.03 212.33 544.73 247.54 734.42 247.51 830.87 247.51 782.42 329.91 759.95 368.14 687.8 490.91 639.56 572.96 591.35 490.91 519.2 368.2 615.65 368.17 639.56 408.87 663.47 368.17 685.97 329.91 593.15 329.94 496.7 329.94 448.28 247.57 427.58 212.33 379.13 129.93 475.58 129.93 803.57 129.87 900.03 129.84 851.57 212.27 755.12 212.27"/>
    <polygon class="st0" points="618.8 608.26 570.59 690.3 548.33 728.18 500.09 810.22 451.88 728.18 240.28 368.23 217.81 330 169.39 247.6 265.85 247.6 314.27 329.97 336.74 368.23 500.09 646.14 522.35 608.26 381.23 368.2 358.76 329.97 310.34 247.57 289.61 212.36 245.11 212.36 148.69 212.39 100.24 129.99 196.69 129.96 241.18 129.96 337.64 129.93 386.06 212.33 406.76 247.57 455.21 329.97 477.68 368.2 570.59 526.24 618.8 608.26"/>
  </g>
</svg>